HIERARCHY
ROOT Hips
{
	OFFSET 0.000000 8.830580 0.000000
	CHANNELS 6 Xposition Yposition Zposition Zrotation Yrotation Xrotation 
	JOINT Spine
	{
		OFFSET 0.000000 0.010000 0.000000
		CHANNELS 3 Zrotation Yrotation Xrotation
		JOINT Spine1
		{
			OFFSET 0.000000 2.459130 0.000000
			CHANNELS 3 Zrotation Yrotation Xrotation
			JOINT Neck
			{
				OFFSET 0.000000 2.484630 0.000000
				CHANNELS 3 Zrotation Yrotation Xrotation
				JOINT Head_virtual
				{
					OFFSET 0.000000 0.000000 0.000000
					CHANNELS 3 Zrotation Yrotation Xrotation
					JOINT Head
					{
						OFFSET 0.000000 0.927525 0.000000
						CHANNELS 3 Zrotation Yrotation Xrotation
						End Site
						{
							OFFSET 0.000000 0.000000 0.000000
						}
					}
				}
				JOINT LeftUpArm_virtual
				{
					OFFSET 0.000000 0.000000 0.000000
					CHANNELS 3 Zrotation Yrotation Xrotation
					JOINT LeftUpArm
					{
						OFFSET 1.248820 0.000000 0.000000
						CHANNELS 3 Zrotation Yrotation Xrotation
						JOINT LeftForeArm
						{
							OFFSET 2.597580 0.000000 0.000000
							CHANNELS 3 Zrotation Yrotation Xrotation
							JOINT LeftHand
							{
								OFFSET 2.455420 0.000000 0.000000
								CHANNELS 3 Zrotation Yrotation Xrotation
								End Site
								{
									OFFSET 0.000000 0.000000 0.000000
								}
							}
						}
					}
				}
				JOINT RightUpArm_virtual
				{
					OFFSET -0.000000 -0.000000 -0.000000
					CHANNELS 3 Zrotation Yrotation Xrotation
					JOINT RightUpArm
					{
						OFFSET -1.248820 -0.000000 -0.000000
						CHANNELS 3 Zrotation Yrotation Xrotation
						JOINT RightForeArm
						{
							OFFSET -2.597580 -0.000000 -0.000000
							CHANNELS 3 Zrotation Yrotation Xrotation
							JOINT RightHand
							{
								OFFSET -2.455420 -0.000000 -0.000000
								CHANNELS 3 Zrotation Yrotation Xrotation
								End Site
								{
									OFFSET 0.000000 0.000000 0.000000
								}
							}
						}
					}
				}
			}
		}
	}
	JOINT LeftUpLeg
	{
		OFFSET 1.271939 0.000000 0.000000
		CHANNELS 3 Zrotation Yrotation Xrotation
		JOINT LeftLowLeg
		{
			OFFSET 0.000000 -4.342910 0.000000
			CHANNELS 3 Zrotation Yrotation Xrotation
			JOINT LeftFoot
			{
				OFFSET 0.000000 -4.487670 0.000000
				CHANNELS 3 Zrotation Yrotation Xrotation
				JOINT LeftToeBase
				{
					OFFSET 0.000000 0.000000 1.515070
					CHANNELS 3 Zrotation Yrotation Xrotation
					End Site
					{
						OFFSET 0.000000 0.000000 0.000000
					}
				}
			}
		}
	}
	JOINT RightUpLeg
	{
		OFFSET -1.271939 0.000000 0.000000
		CHANNELS 3 Zrotation Yrotation Xrotation
		JOINT RightLowLeg
		{
			OFFSET 0.000000 -4.342910 0.000000
			CHANNELS 3 Zrotation Yrotation Xrotation
			JOINT RightFoot
			{
				OFFSET 0.000000 -4.487670 0.000000
				CHANNELS 3 Zrotation Yrotation Xrotation
				JOINT RightToeBase
				{
					OFFSET 0.000000 0.000000 1.515070
					CHANNELS 3 Zrotation Yrotation Xrotation
					End Site
					{
						OFFSET 0.000000 0.000000 0.000000
					}
				}
			}
		}
	}
}
MOTION
Frames: 11
Frame Time: 0.041667
-16.544021 9.015940 42.493071 -162.553815 74.262249 -160.567829 2.489260 8.808876 13.012836 -5.858011 -3.176582 6.545341 0.000000 0.000000 0.000000 -10.334197 34.996096 5.609096 11.702062 -20.088782 -89.803961 -26.228001 -7.164350 7.328380 -17.957001 -30.106600 15.641600 -180.000000 -66.276001 180.000000 15.598800 5.853240 -8.550440 24.491400 10.554600 17.065002 11.174000 44.313301 32.826801 0.000000 75.444603 0.000000 -37.307701 22.935101 -7.588520 11.276043 7.197451 -25.177043 0.000000 0.000000 24.443701 -19.595719 0.241605 14.654778 0.000000 0.000000 -37.584299 6.879659 -1.849954 -6.729894 0.000000 0.000000 22.495800 11.667320 2.085952 2.013535 0.000000 0.000000 -41.250200 
-16.529594 9.020176 42.465860 -162.623386 73.570129 -160.083630 2.378089 8.462784 13.002314 -5.607686 -3.559306 6.397281 0.000000 0.000000 0.000000 -11.038895 35.419333 5.580108 12.154736 -20.353142 -90.179170 -25.993900 -7.309130 7.980630 -18.266800 -31.117701 12.000600 -180.000000 -69.459999 180.000000 21.609600 5.859420 -13.386800 24.660601 10.737500 17.526001 10.739700 44.361500 34.678101 0.000000 77.516197 0.000000 -38.803600 24.268400 -6.647570 11.277148 6.914277 -25.329472 0.000000 0.000000 24.014700 -19.045152 -0.966913 14.555812 0.000000 0.000000 -37.637199 6.955423 -1.996225 -6.803598 0.000000 0.000000 21.887600 11.950923 1.896804 2.093448 0.000000 0.000000 -41.037300 
-16.512346 9.024181 42.432912 -162.669784 72.972003 -159.509001 2.109186 8.200465 12.977171 -5.111876 -3.912124 6.173210 0.000000 0.000000 0.000000 -11.713332 35.756765 5.657785 12.565449 -20.645500 -90.647134 -26.186300 -7.452090 9.579050 -17.784000 -32.495300 7.655530 180.000000 -74.352997 180.000000 25.478901 4.044620 -18.076799 24.650400 10.784500 18.029999 10.094400 44.711201 35.809502 0.000000 79.935303 0.000000 -40.063900 25.418800 -6.032520 11.224911 6.728253 -25.478888 0.000000 0.000000 23.479000 -19.095348 -1.828242 14.297793 0.000000 0.000000 -37.463800 6.997677 -2.065327 -6.922429 0.000000 0.000000 21.293900 12.159466 1.588897 2.125617 0.000000 0.000000 -41.016100 
-16.492846 9.026594 42.394710 -162.558994 72.497274 -158.812702 1.921266 7.977281 13.027955 -4.939388 -4.203518 5.954726 0.000000 0.000000 0.000000 -11.944345 35.908282 5.691801 12.535270 -20.700044 -90.826073 -26.169399 -7.691670 10.223900 -17.812401 -33.692001 5.518260 180.000000 -80.486000 -180.000000 28.774200 1.218410 -16.082701 24.662701 10.822900 18.428986 9.518470 45.129398 36.173801 0.000000 82.624901 0.000000 -41.536400 26.111900 -5.225140 11.169111 6.574198 -25.556624 0.000000 0.000000 22.781700 -19.456162 -2.107291 13.899829 0.000000 0.000000 -37.502199 7.012391 -2.173653 -7.018856 0.000000 0.000000 20.726500 12.507020 1.469706 2.210328 0.000000 0.000000 -41.111000 
-16.470779 9.027813 42.349207 -162.612408 72.160745 -158.159472 1.618453 7.767295 12.861194 -4.777113 -4.504274 5.973075 0.000000 0.000000 0.000000 -12.684486 36.453723 5.509461 12.975548 -20.880579 -91.149750 -26.355200 -7.858950 10.475400 -17.799700 -34.844398 4.510520 180.000000 -87.268799 -180.000000 33.549500 -0.063016 -15.309100 24.567400 10.623600 19.334015 8.107820 46.277901 34.710999 0.000000 85.166496 0.000000 -42.485401 26.407499 -4.331630 10.999592 6.477558 -25.717743 0.000000 0.000000 21.959299 -20.044459 -2.339728 13.731722 0.000000 0.000000 -36.912300 6.921392 -2.195591 -7.258437 0.000000 0.000000 20.280100 12.693732 1.260058 2.155922 0.000000 0.000000 -40.844000 
-16.446772 9.028432 42.300440 -162.520713 72.014931 -157.509666 1.323555 7.679354 12.969417 -4.859386 -4.697309 5.814336 0.000000 0.000000 0.000000 -12.733196 36.677770 5.502483 12.956256 -20.734280 -91.301628 -26.540199 -8.046840 10.637500 -17.775900 -35.745399 4.328790 0.000000 -86.070999 0.000000 32.186199 0.922568 -10.336700 24.492100 10.671400 19.063995 8.150700 46.728699 33.943600 0.000000 87.754898 0.000000 -43.146301 26.382700 -5.185400 10.858996 6.349650 -25.716561 0.000000 0.000000 21.259701 -20.627989 -2.436410 13.490115 0.000000 0.000000 -36.744699 6.789424 -2.054180 -7.393998 0.000000 0.000000 19.922199 12.869135 1.013033 2.093828 0.000000 0.000000 -40.778200 
-16.421427 9.029106 42.247354 -162.228321 72.003399 -156.776283 1.069299 7.653813 13.245827 -5.084684 -4.820693 5.645716 0.000000 0.000000 0.000000 -12.525953 36.724387 5.543073 12.691598 -20.505899 -91.355060 -27.004000 -8.114530 11.981700 -16.123100 -36.888000 3.495770 0.000000 -79.768501 0.000000 30.300200 2.278080 -5.231410 24.492399 10.522600 18.993988 7.628480 47.590302 32.437500 0.000000 89.629997 0.000000 -46.581299 26.504400 -3.999180 10.770893 6.120292 -25.736522 0.000000 0.000000 20.990900 -20.851746 -2.372812 12.908519 0.000000 0.000000 -36.341801 6.621425 -1.862515 -7.414839 0.000000 0.000000 19.584600 13.110240 0.894192 2.064952 0.000000 0.000000 -40.602200 
-16.395022 9.029822 42.192374 -161.807112 72.159653 -156.033007 0.739305 7.761150 13.745349 -5.370349 -4.846053 5.455702 0.000000 0.000000 0.000000 -12.207126 36.729665 5.394886 12.260247 -20.174890 -91.340121 -26.637600 -8.426250 10.129000 -17.390200 -36.495800 8.107850 0.000000 -74.798599 0.000000 27.633801 3.696290 1.770440 24.483700 10.400500 19.041992 7.128430 48.205898 29.938101 -180.000000 88.959297 -180.000000 -48.231701 25.569099 -7.507580 10.583699 6.154541 -25.772339 0.000000 0.000000 21.076200 -20.694420 -2.215413 12.218814 0.000000 0.000000 -36.117800 6.408467 -1.527695 -7.365622 0.000000 0.000000 19.343500 13.327642 0.766587 2.027882 0.000000 0.000000 -40.453300 
-16.364724 9.029323 42.121521 -161.958995 72.106809 -155.490621 0.743047 7.641203 13.785094 -6.270817 -4.966475 5.521625 0.000000 0.000000 0.000000 -11.757065 36.699846 5.328653 11.704529 -19.765737 -91.321447 -26.307501 -8.652380 9.692880 -17.139700 -35.773701 12.363900 0.000000 -71.912300 0.000000 25.228001 5.581400 4.078970 24.612200 10.201700 19.173004 6.310730 49.077702 26.845100 180.000000 88.272003 180.000000 -49.671799 23.641600 -9.452440 10.183610 5.814814 -26.317928 0.000000 0.000000 21.390200 -20.380743 -1.765127 11.365465 0.000000 0.000000 -35.697300 6.014251 -1.711006 -7.579889 0.000000 0.000000 19.063801 13.730143 1.040890 1.961324 0.000000 0.000000 -40.380199 
-16.335726 9.030669 42.055068 -161.779565 72.350840 -154.792297 0.567429 7.741567 14.242614 -7.044751 -4.948136 5.432476 0.000000 0.000000 0.000000 -11.470101 36.736542 4.902685 11.150712 -19.378536 -91.257057 -25.672300 -8.875680 9.359400 -17.261900 -34.284599 16.548300 0.000000 -71.861603 0.000000 21.391899 8.554980 7.876680 24.763700 9.807330 19.502991 4.967230 50.350101 22.942499 180.000000 88.533203 180.000000 -49.990299 21.618299 -10.038300 9.693217 5.941326 -26.700390 0.000000 0.000000 21.787001 -20.043671 -1.243347 10.617999 0.000000 0.000000 -35.115801 5.629183 -1.515084 -7.743474 0.000000 0.000000 18.924500 13.950442 1.040153 1.940620 0.000000 0.000000 -40.230400 
-16.305998 9.031203 41.983857 -161.569298 72.599835 -153.862531 0.423079 7.829368 14.537862 -7.881444 -4.922717 5.459630 0.000000 0.000000 0.000000 -11.277146 36.691873 4.256862 10.461091 -19.057286 -91.227297 -25.149900 -8.740320 9.552710 -16.875099 -32.669102 19.761700 0.000000 -74.064697 0.000000 18.640499 11.568000 10.822000 24.907200 9.372160 19.769012 3.378110 51.821098 19.193001 -180.000000 89.684700 -180.000000 -50.660702 19.374800 -11.921400 9.145984 6.021612 -27.364702 0.000000 0.000000 22.337799 -19.361840 -0.514049 9.708055 0.000000 0.000000 -34.284800 5.214758 -1.610427 -8.083664 0.000000 0.000000 18.745899 14.225216 1.376406 2.006480 0.000000 0.000000 -39.987700 
